<mxfile host="app.diagrams.net" modified="2023-03-30T14:35:15.123Z" agent="Mozilla/5.0 (Windows NT 10.0; Win64; x64) AppleWebKit/537.36 (KHTML, like Gecko) Chrome/111.0.0.0 Safari/537.36" etag="M6zfyswO70q2GZBA8y9_" version="21.1.1" type="github">
  <diagram name="第 1 页" id="liFODEwA3mX3luis9DQH">
    <mxGraphModel dx="1434" dy="788" grid="1" gridSize="10" guides="1" tooltips="1" connect="1" arrows="1" fold="1" page="1" pageScale="1" pageWidth="827" pageHeight="1169" math="0" shadow="0">
      <root>
        <mxCell id="0" />
        <mxCell id="1" parent="0" />
        <mxCell id="jGe5Sn-gFQbiSW4x3vTQ-1" value="" style="shape=datastore;whiteSpace=wrap;html=1;" vertex="1" parent="1">
          <mxGeometry x="290" y="770" width="60" height="60" as="geometry" />
        </mxCell>
        <mxCell id="jGe5Sn-gFQbiSW4x3vTQ-2" value="" style="shape=actor;whiteSpace=wrap;html=1;" vertex="1" parent="1">
          <mxGeometry x="150" y="700" width="40" height="60" as="geometry" />
        </mxCell>
        <mxCell id="jGe5Sn-gFQbiSW4x3vTQ-3" value="" style="shape=actor;whiteSpace=wrap;html=1;" vertex="1" parent="1">
          <mxGeometry x="150" y="840" width="40" height="60" as="geometry" />
        </mxCell>
        <mxCell id="jGe5Sn-gFQbiSW4x3vTQ-5" value="" style="shape=actor;whiteSpace=wrap;html=1;" vertex="1" parent="1">
          <mxGeometry x="440" y="700" width="40" height="60" as="geometry" />
        </mxCell>
        <mxCell id="jGe5Sn-gFQbiSW4x3vTQ-6" value="" style="shape=actor;whiteSpace=wrap;html=1;" vertex="1" parent="1">
          <mxGeometry x="440" y="840" width="40" height="60" as="geometry" />
        </mxCell>
      </root>
    </mxGraphModel>
  </diagram>
</mxfile>
